#!OML:ASF H:\Terrain\Patient Classification 1\Takeo\Monday\TakeoMonday.ASF
:FULLY-SPECIFIED
:DEGREES
282
root 17.5771 17.6788 1.55378 -1.37892 -14.1326 -2.95321
lowerback 1.38857 8.66549 3.56831
upperback -0.0880062 11.6081 -1.08421
thorax 0.0655995 5.80872 -3.11834
lowerneck -7.64951 -9.08453 -6.28674
upperneck 2.5773 -12.2724 12.8215
head 3.22016 -5.76056 4.17009
rclavicle 1.60224e-013 -2.46493e-014
rhumerus 80.4748 39.5243 -58.1754
rradius 56.2382
rwrist -44.7636
rhand -44.4842 29.6254
rfingers 7.12502
rthumb -17.2873 0.374277
lclavicle 1.60224e-013 -2.46493e-014
lhumerus 38.2107 7.405 48.2626
lradius 88.9859
lwrist 30.4696
lhand -22.4866 24.1096
lfingers 7.12502
lthumb 3.93886 54.0529
rfemur 14.4043 -10.0145 15.6864
rtibia 33.7861
rfoot 7.12243 -38.8455
rtoes 7.15717
lfemur -12.6137 -17.482 -19.8645
ltibia 32.6799
lfoot -12.7999 -4.9507
ltoes 0.939021
283
root 17.5744 17.6674 1.56909 -1.51205 -14.0084 -2.60343
lowerback 1.19957 8.62919 3.18379
upperback 0.0829121 11.5461 -1.1453
thorax 0.279073 5.78412 -2.9346
lowerneck -7.80516 -9.13096 -6.57461
upperneck 2.68851 -12.326 12.9951
head 3.31394 -5.77529 4.25251
rclavicle 8.30167e-014 -3.97569e-015
rhumerus 81.0768 39.5419 -57.1322
rradius 56.5986
rwrist -44.8776
rhand -46.2014 32.1375
rfingers 7.12502
rthumb -18.9394 3.03954
lclavicle 8.30167e-014 -3.97569e-015
lhumerus 37.971 7.55852 48.5117
lradius 89.3387
lwrist 30.2482
lhand -21.8429 24.9434
lfingers 7.12502
lthumb 4.56044 54.8743
rfemur 14.4869 -10.3128 15.0564
rtibia 33.917
rfoot 8.02623 -38.4105
rtoes 7.02796
lfemur -12.5079 -17.6821 -20.2879
ltibia 32.7154
lfoot -12.7931 -4.99377
ltoes 2.39199
284
root 17.5678 17.6662 1.57885 -1.57999 -14.0748 -2.57722
lowerback 1.13621 8.59782 3.01765
upperback 0.182816 11.4995 -1.10851
thorax 0.373755 5.76308 -2.79365
lowerneck -8.1793 -9.07515 -6.52779
upperneck 3.10688 -12.2703 12.8119
head 3.47917 -5.72725 4.17135
rclavicle 1.83761e-013 -3.97569e-015
rhumerus 81.6489 39.6691 -56.1192
rradius 56.97
rwrist -44.926
rhand -46.9051 33.5657
rfingers 7.12502
rthumb -19.616 4.53531
lclavicle 1.83761e-013 -3.97569e-015
lhumerus 37.603 7.91641 48.8398
lradius 89.8735
lwrist 30.652
lhand -22.1646 24.2503
lfingers 7.12502
lthumb 4.24982 54.1877
rfemur 14.4671 -10.3052 14.9259
rtibia 34.0525
rfoot 9.11978 -38.0692
rtoes 5.83862
lfemur -12.3907 -17.6967 -20.3298
ltibia 32.7827
lfoot -12.8929 -5.02499
ltoes 3.28128
285
root 17.56 17.6704 1.58633 -1.57566 -14.1951 -2.90691
lowerback 1.12936 8.53561 3.14041
upperback 0.206903 11.4173 -0.961885
thorax 0.390231 5.722 -2.7094
lowerneck -8.56088 -8.93527 -6.29834
upperneck 3.57927 -12.1096 12.4414
head 3.62825 -5.63084 4.01446
rclavicle -1.72259e-013 1.51076e-014
rhumerus 82.1044 39.9031 -55.3265
rradius 57.2908
rwrist -44.9516
rhand -47.0712 29.9059
rfingers 7.12502
rthumb -19.7757 0.891862
lclavicle -1.72259e-013 1.51076e-014
lhumerus 36.9806 8.06213 48.9271
lradius 90.316
lwrist 30.4958
lhand -22.3666 23.7359
lfingers 7.12502
lthumb 4.05473 53.6771
rfemur 14.4407 -9.96219 15.406
rtibia 34.167
rfoot 8.53879 -38.3769
rtoes 5.85859
lfemur -12.2781 -17.5406 -19.9821
ltibia 32.8712
lfoot -13.089 -5.00695
ltoes 2.79914
286
root 17.5577 17.6694 1.59075 -1.43434 -14.2694 -3.14563
lowerback 1.0121 8.53653 3.28401
upperback 0.198561 11.4164 -0.872483
thorax 0.455744 5.72235 -2.6756
lowerneck -9.00391 -8.93339 -6.24473
upperneck 4.03419 -12.1155 12.1243
head 3.81291 -5.61622 3.88394
rclavicle -1.04107e-013 8.74653e-015
rhumerus 82.2853 39.9951 -54.7497
rradius 57.5635
rwrist -44.6474
rhand -46.7834 26.828
rfingers 7.12502
rthumb -19.499 -2.2142
lclavicle -1.04107e-013 8.74653e-015
lhumerus 36.5311 8.03445 49.1849
lradius 90.7204
lwrist 30.5586
lhand -22.0164 23.957
lfingers 7.12502
lthumb 4.39291 53.8915
rfemur 14.2872 -9.75946 15.7333
rtibia 34.2429
rfoot 7.94842 -38.4341
rtoes 6.75092
lfemur -12.4058 -17.4258 -19.6845
ltibia 32.9823
lfoot -13.1948 -5.02401
ltoes 2.33395
287
root 17.5537 17.6714 1.60049 -1.35589 -14.3466 -3.06258
lowerback 0.841337 8.53525 3.12992
upperback 0.188271 11.408 -0.904024
thorax 0.515605 5.71857 -2.60109
lowerneck -9.25807 -8.94651 -6.33081
upperneck 4.39205 -12.1403 12.0189
head 3.96261 -5.61499 3.84637
rclavicle 6.72793e-014 5.56597e-015
rhumerus 82.2497 40.1556 -54.4906
rradius 57.8147
rwrist -44.2032
rhand -46.5734 26.6221
rfingers 7.12502
rthumb -19.2972 -2.44047
lclavicle 6.72793e-014 5.56597e-015
lhumerus 36.3159 8.25123 49.5266
lradius 91.3257
lwrist 31.8054
lhand -21.2841 24.5861
lfingers 7.12502
lthumb 5.10001 54.5047
rfemur 14.1401 -9.75379 15.569
rtibia 34.3232
rfoot 8.13435 -38.1359
rtoes 7.49253
lfemur -12.5192 -17.375 -19.7491
ltibia 33.0846
lfoot -13.3107 -4.93738
ltoes 1.30039
288
root 17.5466 17.6722 1.60828 -1.4381 -14.5155 -3.01643
lowerback 0.84282 8.48014 2.94116
upperback 0.225578 11.3325 -0.90088
thorax 0.511257 5.68052 -2.49995
lowerneck -9.29381 -8.90797 -6.60917
upperneck 4.51285 -12.0865 12.2424
head 4.03229 -5.5792 3.95796
rclavicle -1.82657e-014 0
rhumerus 82.2864 40.467 -54.3293
rradius 58.0639
rwrist -44.0101
rhand -46.8505 26.7277
rfingers 7.12502
rthumb -19.5636 -2.30803
lclavicle -1.82657e-014 0
lhumerus 35.952 8.37528 49.5436
lradius 91.7028
lwrist 32.0513
lhand -21.3021 24.9053
lfingers 7.12502
lthumb 5.08262 54.8243
rfemur 14.1283 -9.61384 15.4862
rtibia 34.4495
rfoot 8.39602 -38.1021
rtoes 6.97904
lfemur -12.4171 -17.2429 -19.8158
ltibia 33.1476
lfoot -13.478 -4.83205
ltoes 0.296094
